<?xml version="1.0" standalone="no"?>
<!DOCTYPE svg PUBLIC "-//W3C//DTD SVG 20010904//EN"
 "http://www.w3.org/TR/2001/REC-SVG-20010904/DTD/svg10.dtd">
<svg version="1.0" xmlns="http://www.w3.org/2000/svg"
 width="32.000000pt" height="32.000000pt" viewBox="0 0 32.000000 32.000000"
 preserveAspectRatio="xMidYMid meet">

<g transform="translate(0.000000,32.000000) scale(0.100000,-0.100000)"
fill="#000000" stroke="none">
<path d="M110 282 c-16 -16 -34 -48 -40 -71 -10 -38 -14 -43 -36 -38 -13 2
-24 1 -24 -3 0 -12 36 -18 51 -9 8 5 23 2 36 -6 29 -19 52 -19 60 1 7 18 -12
34 -43 34 -18 0 -20 5 -16 28 7 42 21 52 67 52 47 0 75 -22 75 -58 0 -16 -6
-22 -22 -22 -33 0 -50 -14 -42 -33 8 -23 40 -21 64 3 23 23 36 25 54 8 10 -10
9 -16 -8 -35 -11 -13 -28 -23 -38 -23 -16 0 -18 -7 -16 -55 l3 -55 43 0 43 0
-2 77 c-2 79 -16 113 -46 113 -7 0 -16 14 -20 30 -6 31 -72 90 -101 90 -7 0
-26 -13 -42 -28z"/>
<path d="M38 193 c7 -3 16 -2 19 1 4 3 -2 6 -13 5 -11 0 -14 -3 -6 -6z"/>
<path d="M27 128 c2 -5 -3 -8 -11 -8 -13 0 -16 -12 -16 -60 l0 -60 50 0 c43 0
50 3 50 20 0 20 0 20 21 -1 16 -16 28 -20 52 -15 39 8 55 22 40 37 -8 8 -13 8
-17 0 -14 -22 -86 -2 -86 24 0 4 -7 22 -16 41 -13 27 -21 33 -44 31 -15 -1
-26 -5 -23 -9z m43 -37 c0 -10 -3 -11 -14 -2 -11 9 -15 9 -19 -1 -3 -7 -6 -3
-6 10 -1 13 3 20 9 17 6 -3 10 0 10 7 0 18 20 -12 20 -31z"/>
</g>
</svg>
